<svg xmlns="http://www.w3.org/2000/svg" viewBox="0 0 1030.53 402.07"><path d="M72.94 280.51c0-4.64-.23-9.29.07-13.91.22-3.49-1-5.42-4.05-7.19a135.49 135.49 0 0 1-52.52-54.6C-27.29 121.85 20.32 21.77 111 3c75.41-15.63 148 31.7 164.57 106.77 12.69 57.34-12.85 117.29-63.11 148.17a31.74 31.74 0 0 1-3.73 2.17c-2.39 1.05-3.1 2.74-3.06 5.31v28.31 3.36c0 1.71-.63 2.79-2.47 2.79q-11 0-22.07 0c-2.13 0-2.49-1.56-2.77-3.24l-3.83-22.69q-5.61-33.08-11.21-66.17l-.24-1.41c-.55-3.82-.47-3.66 3.18-5.38 23.61-11.1 37.3-29.51 40.06-55.55 3.45-32.45-18-62.33-48.73-71-44.32-12.51-88.4 22.71-85.33 68.63 1.81 26.95 15.59 46 39.77 57.77 4.13 2 4.24 1.92 3.48 6.39q-7.52 44.43-15.1 88.85c-.64 3.75-.69 3.81-4.6 3.85q-9.36.09-18.72 0c-4-.05-4.08-.2-4.13-4.05l-.02-15.37z" fill="#fcb040"/><path d="M139.32 351.34q-43.18 0-86.36 0c-5.68 0-5.29.43-5.3-5.07q0-12 0-24c0-5.41-.31-5.1 5.32-5.1h172.24c6.07 0 5.81-.57 5.81 5.61q0 11.5 0 23c0 6 .38 5.52-5.35 5.52q-24.72 0-49.42 0zm.18 50.72H83.37c-1.12 0-2.25-.07-3.36 0-2.1.13-2.81-.93-2.81-2.88v-17.75-10.56c0-2 .88-2.93 2.89-2.82 1 .05 1.92 0 2.88 0h112.75 1.91c3.6.13 3.73.16 3.76 3.87q.09 12.94 0 25.91c0 4.16-.09 4.22-4.32 4.22q-28.78.03-57.57.01zm466.38-289.18a18.48 18.48 0 0 1 15.32-5.46c4.33.4 8.13 1.8 10.95 5.18 1.37 1.63 2.27 2.31 4.07.36 5.5-6 12.56-6.56 19.91-4.9s11.81 7.11 12.23 15.31c.49 9.56.18 19.17.27 28.76 0 2.09-1 2.86-2.91 2.81h-1c-7 .3-7 .3-7-6.58v-18.22a38.16 38.16 0 0 0-.23-4.78c-.7-5.54-4-8.73-9.41-9.07-4.87-.31-8.86 2.57-10.46 7.45a17.58 17.58 0 0 0-.73 5.67v21.09c0 4.32-.07 4.32-4.18 4.44-6.43.2-6.43.2-6.44-6.06V129.7a30.43 30.43 0 0 0-.27-4.7c-.84-5.29-3.74-8.08-8.75-8.6a10.21 10.21 0 0 0-10.84 6.94 21.09 21.09 0 0 0-1 7.07v20.14c0 4.4-.06 4.4-4.6 4.47-5.79.08-5.8.08-5.8-5.71V112.4c0-3.93.08-3.93 4-4q1.2 0 2.4 0c3.5-.02 3.5-.02 4.47 4.48zm-61.97 115.95v19.27 4.32c.08 1.82-.72 2.68-2.54 2.59h-.48c-9.09 0-7.32.51-7.36-6.89v-55.67-3.36c-.08-1.81.75-2.65 2.56-2.56h2.4c5.07 0 5.07 0 6 5.24 6-5.08 12.69-7.46 20.44-5.43a22.41 22.41 0 0 1 12.6 8.23c6.93 9.15 6.42 23.62-1.12 32.05-8.14 9.06-19.04 9.99-32.5 2.21zm-.29-19c0 8.46 6.18 15 14.18 14.88a14.54 14.54 0 0 0 14.14-14.57 14.25 14.25 0 0 0-14.31-14.75c-8-.02-13.98 6.14-14.01 14.4zm448.99-18.16c11.57-8.18 23.27-7.67 31.5 1.07s8.61 23.8 1.05 33.14c-7.87 9.73-19.93 11-32.23 3.35-1.33.67-.83 1.93-.84 2.94v19.18c0 3.51-.1 3.63-3.4 3.64-8.24 0-6.87.52-6.89-6.36V193c0-1.12.07-2.24 0-3.36-.16-2.17.59-3.38 3-3.12a17.55 17.55 0 0 0 1.92 0c4.92-.02 4.92-.02 5.89 5.15zm13.07 3.68c-8 .08-13.94 6.28-13.92 14.55s6.34 14.93 14.31 14.77a14.61 14.61 0 0 0 14-15.16 14.26 14.26 0 0 0-14.39-14.16zM469 306.8c-5.43 4.51-11.43 7-18.51 5.6a23.06 23.06 0 0 1-13.79-8c-7.21-8.65-7.21-23.26 0-32 7.69-9.39 18.92-10.51 32.88-2.82l.07-11.15c0-5.8 0-5.8 5.72-5.77h2.4c1.83-.09 2.6.76 2.55 2.57-.05 2.23 0 4.47 0 6.7q0 22.75 0 45.51c0 4.39-.06 4.39-4.54 4.43-5.33.01-5.33.01-6.78-5.07zm-27.19-18.41c0 8.36 6.45 14.89 14.45 14.7s13.94-6.61 13.92-14.78-6.13-14.58-14-14.69c-8.05-.12-14.39 6.38-14.35 14.77zM522.77 113v-12.56c0-4.56.06-4.56 4.4-4.63h2.4c3.59.13 3.68.14 3.68 3.88q0 25.65 0 51.29c0 3.72-.15 3.77-3.7 4h-1.43c-4.88 0-4.88 0-5.7-5-3.76 2.12-7 5-11.44 5.55a23.93 23.93 0 0 1-12.67-1.53 22.64 22.64 0 0 1-9.83-8.15c-6.37-9.37-5.31-23.59 2.34-31.57 8.03-8.41 19.51-9.11 31.95-1.28zm.39 18.43c0-8.3-6-14.52-14-14.56a14.2 14.2 0 0 0-14.42 14.68c.06 8.35 6.39 14.7 14.55 14.59 7.96-.09 13.88-6.38 13.87-14.69zm214.15 82.78c.6 4.62 3.34 7.52 7.24 9.39a14.78 14.78 0 0 0 18.18-4.08c1.68-2.15 2.76-2.23 5-.93 5.95 3.5 6.11 4.1 1.13 9-8.75 8.68-24.8 9-34.22.67-9.23-8.16-10.55-23.07-2.94-33.13a24.64 24.64 0 0 1 32.72-5.71c7.85 5.08 10.79 12.69 10.72 21.76 0 2.73-1.84 2.52-3.61 2.53q-14.4 0-28.79 0c-1.74.05-3.54-.2-5.43.5zm26.54-9.68c-2.05-6.77-6.92-10-13.55-9.63-6.25.38-10.91 4-12 9.63zM362.8 311.32l-.56-4.81c-6.52 5.3-13.45 7.78-21.48 5.31a22.82 22.82 0 0 1-12.27-8.72c-6.6-9.24-5.84-23.39 1.65-31.63 8-8.76 18.49-9.48 31.72-2.13 1.49-1-.27-3.56 1.6-4a20.75 20.75 0 0 1 8.56 0c1.09.22.89 1.56.91 2.49v8.16 30.69c0 5.52.28 5.09-5.31 5.08-1.55.04-3.17.35-4.82-.44zm0-22.84c.06-8.45-6.2-15-14.24-14.87a14.39 14.39 0 0 0-14.12 14.6c0 8.32 6.3 14.89 14.34 14.88 7.93-.02 14.01-6.35 14.06-14.61zm269.57-73.98a12.28 12.28 0 0 0 9.74 9.94c7.44 1.81 13.56-.5 17.51-7.14a11 11 0 0 1 4.16 1.91c4.88 2.75 4.93 3.09 1.34 7.2-8.61 9.85-25.61 10.67-35.55 1.72s-10.33-25.23-1.08-35 25.49-10.07 34.93-.58c4.94 4.95 6.72 11.12 6.85 17.88.06 3-.21 3.23-3.34 3.25l-29.26.06c-1.67.04-3.5-.45-5.3.76zm26.42-10.22c-1.46-6-5.67-9.22-12.14-9.39-5.6-.16-11.79 3.49-13.22 7.82-.7 2.11.87 2 2.12 2h17.69c1.85.02 3.76.39 5.55-.43zm106.6 65.27l.64-4.05c10.2-1.37 10.2-1.37 10.2 8.4v34c0 3.85-.08 3.85-4 3.93h-1c-5.08 0-5.08 0-6.08-5.07-5.77 4.75-12 7.18-19.48 5.45a23 23 0 0 1-13.46-8.53c-6.94-9-6.44-23.52 1.07-32 7.95-8.97 19.19-9.85 32.11-2.13zm.82 18.62c-.06-8.17-6.27-14.56-14.13-14.55a14.74 14.74 0 0 0-.12 29.47c8.04.11 14.32-6.5 14.25-14.92zM524.43 222c-4.65 10-15.91 13.89-26.95 11.75a23.1 23.1 0 0 1-18.85-20.81c-1.94-19.29 16.1-31.91 33-25.67a23.24 23.24 0 0 1 15 23.75c-.15 2.08-.93 2.77-2.91 2.75-6.7-.05-13.41 0-20.12 0-4 0-8-.06-12 0-2.77.07-3.09.7-2 3.2 3.7 8.65 16.66 10.87 23.58 4a10.6 10.6 0 0 0 1.82-2.2c.94-1.71 2.06-1.65 3.49-.68 1.98 1.37 4.31 2.16 5.94 3.91zm-35.08-17.22h23.21c3.25 0 3.64-.81 1.91-3.7-3-5-7.74-6.56-13.12-6-5.54.5-9.8 3.21-12 9.68zm-23.29-54.57c-5.21 4.94-11.79 6.61-19.1 5.1a22 22 0 0 1-12.82-7.89c-7.23-8.87-7.18-23.27.17-32a22.82 22.82 0 0 1 32-2.75c1.75-1.13-.06-3.73 2.08-4.1a24.26 24.26 0 0 1 8.11 0 1.32 1.32 0 0 1 1.05 1.4 40.1 40.1 0 0 1 .1 2.87q0 18.7 0 37.41c0 4.68-.05 4.68-4.83 4.73-.64 0-1.28-.06-1.92 0-2.52.22-4-.6-3.72-3.44.06-.44-.01-.96-1.12-1.33zm1.61-19c-.11-8.24-6.2-14.4-14.21-14.35a14.64 14.64 0 0 0 .54 29.27c7.9-.13 13.77-6.6 13.67-14.89zm-91.99 23.41l-3 .32c-7.51.31-7.63.35-10-6.72-.92-2.72-2.27-3.77-5.15-3.66-5.43.21-10.88.13-16.31 0-2.08 0-3.35.69-3.83 2.74a13.67 13.67 0 0 1-.47 1.36c-2.29 6.36-4.3 7.47-10.95 6.21-1.42-.27-1.93-.94-1.49-2.3.35-1.06.74-2.11 1.11-3.17q8.52-23.92 17-47.86c1.78-5 1.8-5 7.08-5h2.88c1.82-.08 3.09.59 3.55 2.45.08.31.24.6.34.9q9.24 26 18.45 51.94c.3.78.46 1.55.79 2.79zm-25.13-41.15h-1.24c-1.22 3.44-2.53 6.85-3.63 10.33s-3 6.58-2.94 10.65h12.67c1.44 0 2.1-.67 1.61-2.1q-3.21-9.46-6.47-18.88zM586 143.79c-4.59 8.12-11.71 11.81-20.84 12.06-12.61.36-23-7.74-24.87-19.38-2.12-13 4.64-24.8 16.75-28.1 18.07-4.93 31.76 7.93 31.08 23.7-.11 2.56-1 3.24-3.4 3.22-9.59-.09-19.17 0-28.76 0h-3.35c-2.1 0-2.38 1.08-1.79 2.8 1.82 5.28 8.36 9.1 14.74 8.51 4.34-.39 8.11-2 10.55-5.77 1.26-1.92 2.39-2.22 4.2-.89s4.04 1.89 5.69 3.85zm-22.46-17.28h0 10.49c3.12-.08 3.58-1 1.94-3.8-2.82-4.82-7.33-6.28-12.58-6.07a13.24 13.24 0 0 0-11.89 7.45c-.87 1.63-.1 2.4 1.56 2.41l10.48.01zm-237.7 77.07v-24.45c0-4.1.09-4.17 3.88-4.19q13.42-.08 26.85 0c3.57 0 3.68.1 3.7 3.32.05 8.15.49 6.73-6.44 6.83a459.55 459.55 0 0 1-14.38 0c-2.27 0-3 .9-3.11 3.11-.65 10.73-.7 10.72 9.87 10.72h11.51c1.82 0 2.44.8 2.6 2.57.67 7.32.47 7.61-6.68 7.61h-14.39c-2 0-2.93.75-2.87 2.82.07 2.71.11 5.43 0 8.14-.11 2.35.95 3.07 3.14 3 5.44-.08 10.87 0 16.3 0 4.45 0 4.45.07 4.49 4.57a21.14 21.14 0 0 0 0 2.39c.3 2.61-1 3.26-3.37 3.24-9.27-.08-18.54-.1-27.81 0-2.52 0-3.35-.93-3.32-3.35v-26.37zM922 190.9c2.23-.43 3-1.55 4-2.24 11.68-7.65 26.91-1.17 28.29 12.67 1 9.82.29 19.81.38 29.73 0 1.68-.92 2.05-2.41 2.21-8 .82-8.21.63-8.21-7.54v-15.84a44.27 44.27 0 0 0-.47-6.2c-.82-5.22-3.84-8.21-8.68-8.82a10.69 10.69 0 0 0-11.41 6.13 17.2 17.2 0 0 0-1.43 7.47q.06 10.32 0 20.63c0 4-.07 4.14-3.84 4.12-7.67 0-6.61.86-6.64-6.62v-46.55-3.35c-.06-1.82.78-2.67 2.59-2.58h1c8.21 0 6.73-.37 6.85 6.47L922 190.9zm-266.77 73.23a24 24 0 0 1 24.43 24.14 24.16 24.16 0 1 1-48.31.5c-.15-13.77 10.3-24.55 23.88-24.64zm14 24.16c-.07-8.05-6-14.2-13.75-14.2s-14 6.49-13.77 14.68c.18 8 6.3 14.07 14 14s13.58-6.48 13.51-14.48zm206.77.36a24.13 24.13 0 1 1-24-24.52c13.56.04 24.06 10.76 24 24.52zm-24.4 14.08a13.89 13.89 0 0 0 14-13.94c.17-8-5.66-14.44-13.27-14.69-8-.27-14.13 5.88-14.23 14.17-.05 8.05 5.79 14.32 13.5 14.46zm-81.7-146.87a24.06 24.06 0 0 1-24.16-24.44 24.23 24.23 0 0 1 48.45 0 24.25 24.25 0 0 1-24.29 24.44zM783.75 132c.24-7.8-5.79-14.5-13.32-14.83s-14 5.9-14.34 13.8 5.85 14.89 13.54 15.06c7.52.13 13.88-6.19 14.12-14.03zm-95.57 58.86c1.36-.2 2.1-1.35 3.13-2.05 11.59-7.85 26.53-1.41 28.35 12.4 1.3 9.86.35 19.81.54 29.71 0 1.58-.73 2.16-2.3 2.35-8.08 1-8.56.57-8.56-7.61q0-8.4 0-16.8c0-1.28 0-2.56-.09-3.83-.48-6.06-3.93-9.77-9.45-10.22a10.82 10.82 0 0 0-11.86 8.9 27.91 27.91 0 0 0-.33 5.26v20.15c0 4-.08 4.13-3.88 4.12-8 0-6.87.87-6.91-6.84v-35.51c0-4.28.07-4.28 4.21-4.36h.48c5.11-.05 5.11-.05 6.67 4.33zm-146.84 79.01a19.15 19.15 0 0 1 18-5.36c7.17 1.4 11.53 5.85 13.17 12.92a32.19 32.19 0 0 1 .82 7.6v23.48c0 2.44-.81 3.4-3.33 3.35-8.81-.19-7.39.86-7.49-7.29v-17.25a42.44 42.44 0 0 0-.19-4.79c-.62-5.18-3.65-8.44-8.34-9.11-5.39-.76-9.79 1.43-12 5.95a15.92 15.92 0 0 0-1.31 7v21.08c0 4.29-.07 4.37-4.16 4.34-6.31 0-6.43 1-6.43-6v-35.94c0-4.7.07-4.7 4.82-4.74h1.44c3.88.02 3.88.02 5 4.76zm352.37.07c4.13-3.62 8.24-5.78 13.32-5.84 10.73-.1 17.92 5.77 18.6 16.46.6 9.55.21 19.17.26 28.76a2.12 2.12 0 0 1-.1.95c-1.69 3.05-4.54 1.12-6.84 1.48-1.45.24-3.41.51-3.58-1.93-.1-1.44-.09-2.88-.09-4.32v-17.74a36.86 36.86 0 0 0-.37-5.25c-.87-5.64-3.81-8.63-8.82-9.14-5.84-.59-10 2-11.94 7.4a18 18 0 0 0-.87 6.13v21.58c0 2.41-.7 3.43-3.26 3.38-8.55-.19-7.2.82-7.25-7v-35.49c0-4.19.07-4.19 4.23-4.25h1.92c3.86.01 3.86.02 4.79 4.82zm-500.98-.19c5.76-5.37 12.18-6.72 19.35-4.89 6 1.52 9.68 5.39 11.43 11.15a24.16 24.16 0 0 1 1.08 6.59l.15 25.88c0 2.41-.71 3.43-3.26 3.37-8.38-.18-7.46.9-7.52-7.38V287.7a46.11 46.11 0 0 0-.3-5.26c-.68-5.25-3.65-8.39-8.4-9-5.42-.72-9.76 1.48-11.88 6.06a16.25 16.25 0 0 0-1.31 7q.07 10.78 0 21.57c0 3.67-.09 3.77-3.73 3.76-7.45 0-6.77.91-6.8-6.53v-34c0-1.28 0-2.56.07-3.83.05-.6.2-1.54.58-1.71 2.72-1.21 5.63-.67 8.44-.44 2.08.17 1 2.35 1.59 3.51l.51.92zm420.6-41.5c-4.88 4.57-9.08 6.08-14 6-9.79-.17-16.3-5.91-17.22-15.74-.39-4.13-.27-8.31-.3-12.46v-16.32c0-2.1.57-3.26 3-3.23 9.35.12 7.49-.76 7.63 7.11.1 6.24 0 12.48 0 18.72a19.7 19.7 0 0 0 .49 5.24c1.26 4.62 3.86 7 8.26 7.46 4.88.5 8.54-1.48 10.61-5.7 1.39-2.83 1.42-5.89 1.45-8.92v-18.72c0-5.17 0-5.17 5.41-5.16h1.44c3.61.13 3.71.13 3.72 3.89q.06 19.68 0 39.35c0 3.36-.12 3.37-3.56 3.48h-2.4c-2.55.04-5.53.62-4.53-5zM592.55 270c5.58-5.39 11.74-6.86 18.58-5.39 7.55 1.62 12.66 7 13.11 15.13.56 9.88.23 19.82.28 29.73 0 .8 0 1.9-.85 2.06a23.3 23.3 0 0 1-8.57 0c-1.35-.24-1-1.81-1-2.88v-18.71c0-2.87.18-5.74-.54-8.59-1.26-5-4.12-7.61-8.87-8-5.25-.47-9.32 1.75-11.31 6.26a19.29 19.29 0 0 0-1.43 8v20.63c0 3.49-.1 3.6-3.39 3.6-8.24 0-6.94.8-7-6.74v-36c0-3.91.08-3.91 4-4H587c4.49-.01 4.49-.01 5.55 4.9zm89.81-93.77c-.44-1.93.75-3.4 1.38-5l6.22-15.06a7.72 7.72 0 0 0 0-6.84l-15.61-36.09c-.61-1.43-1.69-2.76-1.3-4.47a2.07 2.07 0 0 1 .47-.21c9.59-1.16 9.59-1.16 13.26 7.74l9.12 22c2.14 0 2-1.71 2.42-2.72l9.1-23.22c1.59-4.05 1.62-4.09 5.81-4.07 2 0 4.11-.38 6 .44.41 1.72-.52 3-1.05 4.24l-24.22 59.51c-1.17 2.92-2.49 4.61-5.86 4-1.89-.21-3.84.34-5.74-.25zm-303.18 15.21c5.66-5.16 11.68-6.8 18.61-5.22a15.7 15.7 0 0 1 12.33 11.44 23.22 23.22 0 0 1 1 6.12l.13 26.39c0 2.23-.7 3.15-3 3.11-8.82-.14-7.65.88-7.75-7.1v-16.8a44 44 0 0 0-.28-5.26c-.68-5.4-3.8-8.64-8.78-9.26a10.79 10.79 0 0 0-11.65 6.54 17.23 17.23 0 0 0-1.17 7v21.11c0 3.6-.1 3.7-3.8 3.69-7.55 0-6.69.88-6.72-6.57v-34.55c0-6.48.1-5.54 5.87-5.58 4.03.01 4.03.06 5.21 4.94zM886 234.23c-7.82 0-14.2-1.87-18.82-7.82-2.21-2.84-2.1-3.18 1.13-4.84 1-.52 2.07-.89 3-1.49 2.27-1.47 3.81-1.14 5.61 1.08 3.12 3.85 7.56 4.46 12.23 3.68a6.33 6.33 0 0 0 4.35-2.71c1.51-2.23 1.15-4.38-1.19-5.69a19.3 19.3 0 0 0-4.49-1.58c-3.86-1-7.8-1.77-11.58-3-5.26-1.72-8.91-5.17-9.25-11s2.53-9.75 7.29-12.54c8.71-5.1 22.37-3 28.19 4.23 1.77 2.22 1.74 2.49-.77 3.88-1.11.62-2.34 1.05-3.41 1.73-1.91 1.2-3.25 1-4.91-.73-3-3.16-7-3.54-11.14-2.71-2.67.55-4.33 2.29-4.46 4.36-.16 2.67 1.77 3.65 3.78 4.26 2.9.88 5.87 1.51 8.83 2.17a31.25 31.25 0 0 1 7.26 2.4c7.24 3.61 9.42 11.29 5.13 18.2-3 4.84-7.65 7.07-13.08 7.9a30.86 30.86 0 0 1-3.7.22zm-483.41-126.9c8.71.15 15.63 3.73 20.34 11.25 1.64 2.62 1.48 2.86-1.34 4.22a30.8 30.8 0 0 1-1.31.59c-4.45 1.93-4.45 1.93-7.68-1.67a13.8 13.8 0 0 0-19.75-.8 14.74 14.74 0 0 0 .15 21.39 13.68 13.68 0 0 0 19.7-1.05c3.28-3.76 3.28-3.76 8-1.69l.44.2c3.71 1.68 3.82 2 1.47 5.49-4.62 6.88-11.18 10.24-19.38 10.58a24.32 24.32 0 0 1-7.8-47.63 30.72 30.72 0 0 1 7.16-.88zm278.09 158.09c10.55-.9 10.55-.9 13.83 8.09l6.91 18.87c.55 1.45.7 3.14 2.27 4.41 1-.8 1.24-2 1.63-3.12l8.89-24.77c1.36-3.77 1.39-3.77 5.42-3.81h4.79a7.21 7.21 0 0 1 1.35.28c.39 1.42-.38 2.55-.81 3.7q-7.29 19.5-14.67 39c-1.41 3.72-1.44 3.79-5.44 3.73-7.92-.1-6.13 1.17-9-6.23l-13.14-34.42c-.71-1.77-1.28-3.57-2.03-5.73zm118.9-137.03v-20.16A48.57 48.57 0 0 1 800 103c1.11-9.82 7.54-13.51 17.64-13.57 1.54 0 2.45.54 2.44 2.19v2.88c0 4.58-.1 4.28-3.92 4.92-4.25.72-5.75 2.67-5.65 6.35 0 1.52.55 2.46 2.18 2.5a21.06 21.06 0 0 1 2.39.07c1.64.23 4-.87 4.7 1.24a12.07 12.07 0 0 1 0 7.09c-.39 1.31-1.82 1-2.91 1.08-6.35.41-6.35.41-6.35 7v26.39c0 3.61-.22 3.8-3.83 3.86-8.69.14-6.94-.13-7-6.88-.18-6.62-.11-13.18-.11-19.73zm-5.98 122.25v10.23c.07 4.11.09 4.11 4.38 4.21h.48c4.64 0 4.72-.42 4.72 4.73s-.13 4.62-4.79 4.66-4.77.08-4.79 4.76v14.39c.2 6 1.17 7.12 7.08 8.06 1.83.3 2.34 1.05 2.48 2.76.62 7.37-.31 8.22-7.8 6.86s-10.47-4.2-11.82-11.74a33.2 33.2 0 0 1-.47-5.72l-.09-32.6c0-2.57.75-4.18 2.93-5.45s4.5-2.98 7.69-5.15zm-364.96-78.01v11.06c0 2 .82 2.95 2.84 2.82h1.91c4.77.09 4.77.09 4.78 4.66s0 4.61-4.73 4.72-4.76.11-4.78 4.77v14.84c.11 5.55 1 6.81 6.34 7.71 2.35.4 3.17 1.22 3.21 3.64.09 6.61 0 6.84-6.43 6.25-8.66-.8-13.07-5-13.42-13.81-.39-9.72-.18-19.46-.23-29.19v-1.44c0-10.33 0-10.33 10.51-16.03zM843.51 192c4.76-5.3 10.25-6.44 16.44-4.72 2.85.79 3 1.26 2.11 4a22.57 22.57 0 0 1-.69 1.78c-.63 1.46-1 3.24-2 4.29-1.33 1.32-3-.3-4.45-.54-6.78-1.08-11.33 2.27-11.69 9.22-.37 7.17-.26 14.36-.31 21.55 0 6.5-.17 5.54-5.88 5.59-4.68 0-4.71 0-4.72-4.72q0-18.43 0-36.89c0-5.09 0-5.09 4.9-5.11h.47c4.71.08 4.71.08 5.82 5.55zm-387.39.22c2.74-2.54 4.91-4.69 8.06-5.13.78-.12 1.56-.39 2.35-.44 3.06-.19 6.89-.49 8.48 1.95s-1.5 5.46-2.3 8.29c-.33 1.19-1.33 1.08-2.35.78-11.28-3.3-14.76 3.47-14.58 12 .15 6.7.08 13.4 0 20.11 0 3.38-.14 3.49-3.54 3.48-8.33 0-6.91.76-7-6.72v-35.91c0-4 .07-4 3.93-4.07h1.44c4.73-.03 4.73-.03 5.51 5.66zm143.75-.14c5-5.62 10.69-6.39 17-4.66 2 .54 2.61 1.6 1.74 3.52-.47 1-.83 2.07-1.24 3.11-1.53 3.77-1.53 3.77-5.67 2.95-7.13-1.42-12 2.2-12.23 9.61-.27 7.17-.1 14.37-.12 21.56 0 5.1 0 5.1-5.3 5.09h-1c-4.12-.08-4.19-.08-4.2-4.31q-.06-19.17 0-38.34c0-4 .1-4 4-4.08h1c4.97-.03 4.97-.03 6.02 5.55zm-89.49 90.15v-24.89c0-3.74.08-3.85 3.61-3.83 8.13 0 6.81-.86 6.85 6.81v45.46 3.35c.14 2.15-1 2.73-2.9 2.7-9.21-.1-7.46.88-7.57-7.1l.01-22.5zm452.4-72.64v-19.65c0-2.37.67-3.38 3.24-3.47 7.46-.26 7.46-.36 7.46 7q0 16.78 0 33.56a19.54 19.54 0 0 1-.1 3.83c-.85 4.32-4.31 1.92-6.6 2.32-1.73.29-4.11.66-4-2.49v-2.88zm-141.67 79.15v19.18c0 3.78-.09 3.89-3.63 3.88-7.52 0-7 1-7-6.87v-34a18.66 18.66 0 0 1 .09-3.35c.81-4.39 4.29-2 6.58-2.37 1.73-.3 4.11-.68 4 2.47v2.88zm1.18-35.49c.07 4.07-2.31 6.6-6.33 6.72s-6.74-2.23-6.9-6.17c-.17-4.17 2.49-7 6.61-7s6.54 2.42 6.62 6.45zm146-84.94a6.27 6.27 0 0 1 6.48 6.67c0 4.17-2.68 6.65-7 6.49-4.13-.15-6.29-2.52-6.16-6.75a6.21 6.21 0 0 1 6.68-6.41zm-29.1 131.61c3.76.05 6.15 2.53 6.17 6.4s-2.65 6.59-6.63 6.41c-3.75-.16-6-2.71-5.93-6.61a6 6 0 0 1 6.39-6.2z" fill="#25489f"/></svg>