<svg xmlns="http://www.w3.org/2000/svg" viewBox="0 0 200.69 326.09"><path d="M65,150.06c0-3.2.85-6.72-.24-9.5s-4.87-3.52-7.39-5.31C33.19,118,21.33,87.61,27.69,58.85a74.49,74.49,0,1,1,110.47,79.86,3.85,3.85,0,0,0-2.26,3.93c.14,5.11,0,10.24.08,15.35,0,1.73-.36,2.43-2.24,2.34-3.35-.15-6.72-.14-10.07,0-1.67.07-2.2-.61-2.45-2.1q-3.61-21.75-7.29-43.47c-.36-2.13-1.45-4.6-.73-6.28.61-1.42,3.4-1.83,5.15-2.82,13.29-7.52,20.54-23.28,17.51-37.95a36,36,0,1,0-50,39.5c2,.88,2.28,1.9,2,3.76q-4.09,23.73-8.06,47.47c-.23,1.39-.73,1.91-2.14,1.88-3.52-.08-7-.1-10.56,0-1.61.05-2.07-.57-2-2.1.09-2.72,0-5.44,0-8.16Z" fill="#fcb040"/><path d="M64.51 314.36c-5.62 6.37-12.05 10.05-19.75 11.16C25.33 328.33 7.35 317 2.07 298c-4.41-15.87-2-30.69 9.86-42.89 13.58-13.9 38.31-15.33 51.81-1a5 5 0 0 0 .77.43c0-2.47.11-4.73 0-7-.1-1.63.52-2 2-2 4.56.07 9.12.12 13.67 0 2-.07 2.52.58 2.52 2.55v56.12 18.22c0 1.62-.52 2.06-2.06 2q-7.06-.12-14.14 0c-1.57 0-2.11-.44-2-2 .11-2.43.01-4.91.01-8.07zm-22.4-53.75a23.78 23.78 0 0 0-24.13 24c-.13 13.45 10.18 24.62 22.88 24.77 14 .17 24.51-10.12 24.61-24.12s-9.95-24.52-23.36-24.65zm97.78 30.83h-29.76c-2 0-2.27.46-1.69 2.3a23.16 23.16 0 0 0 19.83 16.14c11 1.09 19.62-2.48 25.08-12.46.5-.92.93-1 1.82-.52l12.46 7.18c1.49.83.77 1.63.24 2.51-6.06 10.06-14.75 16.45-26.37 18.58-12.12 2.22-23.72.8-33.94-6.4-13-9.14-18.19-22.14-16.73-37.73 1.67-17.81 13.53-31.59 30.66-35.72 21.72-5.24 45 6.36 49.7 30.86.89 4.59.7 9.23.77 13.86 0 1.71-1.06 1.43-2.07 1.43zM131 276.22h19.6c3.12 0 3.2-.07 2-3-3.74-9.08-10.89-12.84-20.35-13.13-10-.32-18.76 5-22.62 13.87-.73 1.68-.72 2.33 1.44 2.29 6.63-.11 13.26-.03 19.93-.03zM100.69 169.6h46.3c2 0 2.61.52 2.55 2.53-.14 4.55-.09 9.12 0 13.67 0 1.52-.39 2.08-2 2.08q-47-.06-94 0c-1.58 0-2-.48-2-2 .09-4.64.14-9.28 0-13.92-.07-2 .7-2.33 2.47-2.32l46.68-.04zM198.34 285v37c0 2-.57 2.58-2.55 2.52-4.56-.14-9.12-.1-13.68 0-1.53 0-2.06-.4-2.06-2q.08-37.43 0-74.86c0-1.62.53-2 2.06-2 4.56.07 9.12.12 13.68 0 2-.06 2.56.51 2.55 2.52V285zm-97.75-88.36h30.68c2.18 0 2.71.66 2.64 2.73-.15 4.54-.1 9.1 0 13.66 0 1.56-.48 2.06-2 2.06q-31.29-.06-62.56 0c-1.65 0-2-.61-2-2.1v-13.9c0-1.84.43-2.46 2.37-2.44l30.87-.01zm88.56 41.04c-7.12 0-11.4-4.3-11.36-11.37 0-6.87 4.67-11.46 11.51-11.4s11.41 4.6 11.39 11.51-4.49 11.28-11.54 11.26z" fill="#25489f"/></svg>